<mxfile host="app.diagrams.net" agent="Mozilla/5.0 (Macintosh; Intel Mac OS X 10.15; rv:141.0) Gecko/20100101 Firefox/141.0" version="28.0.7">
  <diagram name="Page-1" id="1oyJTx9iJmzwFbgeCw0W">
    <mxGraphModel dx="1376" dy="799" grid="1" gridSize="10" guides="1" tooltips="1" connect="1" arrows="1" fold="1" page="1" pageScale="1" pageWidth="850" pageHeight="1100" math="0" shadow="0">
      <root>
        <mxCell id="0" />
        <mxCell id="1" parent="0" />
        <mxCell id="y1pfxoxcxrdS_PXuzg_Y-19" value="&lt;b&gt;&lt;font style=&quot;font-size: 24px;&quot;&gt;MVP&lt;/font&gt;&lt;/b&gt;" style="rounded=0;whiteSpace=wrap;html=1;fillColor=#d5e8d4;strokeColor=#82b366;" vertex="1" parent="1">
          <mxGeometry x="80" y="20" width="690" height="320" as="geometry" />
        </mxCell>
        <mxCell id="y1pfxoxcxrdS_PXuzg_Y-18" value="&lt;b&gt;&lt;font style=&quot;font-size: 24px;&quot;&gt;Stretch goals&lt;/font&gt;&lt;/b&gt;" style="rounded=0;whiteSpace=wrap;html=1;glass=0;fillColor=#dae8fc;strokeColor=#6c8ebf;" vertex="1" parent="1">
          <mxGeometry x="80" y="340" width="690" height="340" as="geometry" />
        </mxCell>
        <mxCell id="y1pfxoxcxrdS_PXuzg_Y-2" style="edgeStyle=orthogonalEdgeStyle;rounded=0;orthogonalLoop=1;jettySize=auto;html=1;" edge="1" parent="1" source="y1pfxoxcxrdS_PXuzg_Y-1" target="y1pfxoxcxrdS_PXuzg_Y-4">
          <mxGeometry relative="1" as="geometry">
            <mxPoint x="310" y="100" as="targetPoint" />
          </mxGeometry>
        </mxCell>
        <mxCell id="y1pfxoxcxrdS_PXuzg_Y-1" value="User writes a goal" style="rounded=1;whiteSpace=wrap;html=1;" vertex="1" parent="1">
          <mxGeometry x="110" y="70" width="120" height="60" as="geometry" />
        </mxCell>
        <mxCell id="y1pfxoxcxrdS_PXuzg_Y-6" style="edgeStyle=orthogonalEdgeStyle;rounded=0;orthogonalLoop=1;jettySize=auto;html=1;exitX=0.5;exitY=1;exitDx=0;exitDy=0;entryX=0.5;entryY=0;entryDx=0;entryDy=0;" edge="1" parent="1" source="y1pfxoxcxrdS_PXuzg_Y-3" target="y1pfxoxcxrdS_PXuzg_Y-7">
          <mxGeometry relative="1" as="geometry">
            <mxPoint x="590" y="220" as="targetPoint" />
            <Array as="points">
              <mxPoint x="590" y="175" />
              <mxPoint x="591" y="175" />
            </Array>
          </mxGeometry>
        </mxCell>
        <mxCell id="y1pfxoxcxrdS_PXuzg_Y-3" value="AI splits goals into tasks, add tasks to goal object" style="rounded=1;whiteSpace=wrap;html=1;" vertex="1" parent="1">
          <mxGeometry x="530" y="70" width="120" height="60" as="geometry" />
        </mxCell>
        <mxCell id="y1pfxoxcxrdS_PXuzg_Y-5" style="edgeStyle=orthogonalEdgeStyle;rounded=0;orthogonalLoop=1;jettySize=auto;html=1;entryX=0;entryY=0.5;entryDx=0;entryDy=0;" edge="1" parent="1" source="y1pfxoxcxrdS_PXuzg_Y-4" target="y1pfxoxcxrdS_PXuzg_Y-3">
          <mxGeometry relative="1" as="geometry" />
        </mxCell>
        <mxCell id="y1pfxoxcxrdS_PXuzg_Y-4" value="App creates goal &#39;object&#39;" style="rounded=1;whiteSpace=wrap;html=1;" vertex="1" parent="1">
          <mxGeometry x="320" y="70" width="120" height="60" as="geometry" />
        </mxCell>
        <mxCell id="y1pfxoxcxrdS_PXuzg_Y-9" value="" style="edgeStyle=orthogonalEdgeStyle;rounded=0;orthogonalLoop=1;jettySize=auto;html=1;" edge="1" parent="1" source="y1pfxoxcxrdS_PXuzg_Y-7" target="y1pfxoxcxrdS_PXuzg_Y-8">
          <mxGeometry relative="1" as="geometry" />
        </mxCell>
        <mxCell id="y1pfxoxcxrdS_PXuzg_Y-7" value="Users can add/edit/delete tasks from goal" style="rounded=1;whiteSpace=wrap;html=1;" vertex="1" parent="1">
          <mxGeometry x="530" y="220" width="120" height="60" as="geometry" />
        </mxCell>
        <mxCell id="y1pfxoxcxrdS_PXuzg_Y-8" value="Users can get AI to add more tasks based on current tasks within goal" style="whiteSpace=wrap;html=1;rounded=1;" vertex="1" parent="1">
          <mxGeometry x="630" y="370" width="120" height="60" as="geometry" />
        </mxCell>
        <mxCell id="y1pfxoxcxrdS_PXuzg_Y-12" value="" style="edgeStyle=orthogonalEdgeStyle;rounded=0;orthogonalLoop=1;jettySize=auto;html=1;" edge="1" parent="1" source="y1pfxoxcxrdS_PXuzg_Y-10" target="y1pfxoxcxrdS_PXuzg_Y-11">
          <mxGeometry relative="1" as="geometry" />
        </mxCell>
        <mxCell id="y1pfxoxcxrdS_PXuzg_Y-13" value="" style="edgeStyle=orthogonalEdgeStyle;rounded=0;orthogonalLoop=1;jettySize=auto;html=1;" edge="1" parent="1" source="y1pfxoxcxrdS_PXuzg_Y-10" target="y1pfxoxcxrdS_PXuzg_Y-11">
          <mxGeometry relative="1" as="geometry" />
        </mxCell>
        <mxCell id="y1pfxoxcxrdS_PXuzg_Y-16" value="" style="edgeStyle=orthogonalEdgeStyle;rounded=0;orthogonalLoop=1;jettySize=auto;html=1;" edge="1" parent="1" source="y1pfxoxcxrdS_PXuzg_Y-10" target="y1pfxoxcxrdS_PXuzg_Y-15">
          <mxGeometry relative="1" as="geometry" />
        </mxCell>
        <mxCell id="y1pfxoxcxrdS_PXuzg_Y-10" value="User can interact with previous goals" style="rounded=1;whiteSpace=wrap;html=1;" vertex="1" parent="1">
          <mxGeometry x="110" y="270" width="120" height="60" as="geometry" />
        </mxCell>
        <mxCell id="y1pfxoxcxrdS_PXuzg_Y-11" value="User can delete goal" style="whiteSpace=wrap;html=1;rounded=1;" vertex="1" parent="1">
          <mxGeometry x="280" y="220" width="120" height="60" as="geometry" />
        </mxCell>
        <mxCell id="y1pfxoxcxrdS_PXuzg_Y-17" style="edgeStyle=orthogonalEdgeStyle;rounded=0;orthogonalLoop=1;jettySize=auto;html=1;" edge="1" parent="1" source="y1pfxoxcxrdS_PXuzg_Y-15" target="y1pfxoxcxrdS_PXuzg_Y-8">
          <mxGeometry relative="1" as="geometry" />
        </mxCell>
        <mxCell id="y1pfxoxcxrdS_PXuzg_Y-15" value="User can edit the goal &amp;amp; re-generate tasks completely or just add more tasks based on current tasks &amp;amp; new goal" style="whiteSpace=wrap;html=1;rounded=1;" vertex="1" parent="1">
          <mxGeometry x="510" y="520" width="160" height="120" as="geometry" />
        </mxCell>
      </root>
    </mxGraphModel>
  </diagram>
</mxfile>
